<svg width="48" height="48" viewBox="0 0 48 48" fill="none" xmlns="http://www.w3.org/2000/svg">
<path d="M35.5 4C36.0909 4 36.6761 4.1164 37.2221 4.34254C37.768 4.56869 38.2641 4.90016 38.682 5.31802C39.0998 5.73588 39.4313 6.23196 39.6575 6.77792C39.8836 7.32389 40 7.90905 40 8.5V39.51C40 40.1009 39.8836 40.6861 39.6575 41.2321C39.4313 41.778 39.0998 42.2741 38.682 42.692C38.2641 43.1098 37.768 43.4413 37.2221 43.6675C36.6761 43.8936 36.0909 44.01 35.5 44.01H12.5C11.9091 44.01 11.3239 43.8936 10.7779 43.6675C10.232 43.4413 9.73588 43.1098 9.31802 42.692C8.90016 42.2741 8.56869 41.778 8.34254 41.2321C8.1164 40.6861 8 40.1009 8 39.51V8.5C7.99986 7.35975 8.43259 6.26196 9.21074 5.42849C9.98889 4.59503 11.0544 4.08804 12.192 4.01L12.5 4H35.5ZM37 32H11V39.51C11 40.338 11.672 41.01 12.5 41.01H35.5C35.8978 41.01 36.2794 40.852 36.5607 40.5707C36.842 40.2894 37 39.9078 37 39.51V32ZM15.502 35H32.5C32.88 35.0001 33.2459 35.1445 33.5236 35.4039C33.8013 35.6634 33.9701 36.0186 33.9961 36.3978C34.022 36.7769 33.903 37.1518 33.6631 37.4466C33.4233 37.7414 33.0805 37.9342 32.704 37.986L32.5 38H15.502C15.1221 37.9994 14.7566 37.8547 14.4793 37.595C14.202 37.3354 14.0335 36.9803 14.0079 36.6012C13.9822 36.2222 14.1013 35.8476 14.3412 35.553C14.581 35.2584 14.9237 35.0658 15.3 35.014L15.502 35H32.5H15.502ZM35.5 7H12.5L12.296 7.014C11.9369 7.0633 11.6078 7.24096 11.3695 7.51414C11.1313 7.78732 11 8.13752 11 8.5V29H16V24.49C16.0002 23.8714 16.2297 23.2749 16.6442 22.8157C17.0587 22.3566 17.6287 22.0673 18.244 22.004L18.5 21.99H29.5C30.794 21.99 31.86 22.974 31.986 24.236L32 24.49V29H37V8.5C37 8.10218 36.842 7.72064 36.5607 7.43934C36.2794 7.15804 35.8978 7 35.5 7ZM24 9.992C25.3261 9.992 26.5979 10.5188 27.5355 11.4565C28.4732 12.3941 29 13.6659 29 14.992C29 16.3181 28.4732 17.5899 27.5355 18.5275C26.5979 19.4652 25.3261 19.992 24 19.992C22.6739 19.992 21.4021 19.4652 20.4645 18.5275C19.5268 17.5899 19 16.3181 19 14.992C19 13.6659 19.5268 12.3941 20.4645 11.4565C21.4021 10.5188 22.6739 9.992 24 9.992Z" fill="#FFCF5C"/>
</svg>
