<svg width="48" height="48" viewBox="0 0 48 48" fill="none" xmlns="http://www.w3.org/2000/svg">
<path d="M15 33.75C18.7279 33.75 21.75 30.7279 21.75 27C21.75 23.2721 18.7279 20.25 15 20.25C11.2721 20.25 8.25 23.2721 8.25 27C8.25 30.7279 11.2721 33.75 15 33.75Z" stroke="#FF647C" stroke-width="2.25" stroke-linecap="round" stroke-linejoin="round"/>
<path d="M33 18.75C36.7279 18.75 39.75 15.7279 39.75 12C39.75 8.27208 36.7279 5.25 33 5.25C29.2721 5.25 26.25 8.27208 26.25 12C26.25 15.7279 29.2721 18.75 33 18.75Z" stroke="#FF647C" stroke-width="2.25" stroke-linecap="round" stroke-linejoin="round"/>
<path d="M5.25 42.75C5.25 39.75 7.5 33.75 15 33.75C22.5 33.75 24.75 39.75 24.75 42.75M23.25 27.75C23.25 24.75 25.5 18.75 33 18.75C40.5 18.75 42.75 24.75 42.75 27.75H23.25Z" stroke="#FF647C" stroke-width="2.25" stroke-linecap="round" stroke-linejoin="round"/>
</svg>
