<svg width="48" height="48" viewBox="0 0 48 48" fill="none" xmlns="http://www.w3.org/2000/svg">
<path d="M24 45L11.346 30.0765C11.1702 29.8524 10.9962 29.6269 10.824 29.4C8.66249 26.5527 7.49478 23.0748 7.50002 19.5C7.50002 15.1239 9.23841 10.9271 12.3328 7.83274C15.4271 4.73839 19.6239 3 24 3C28.3761 3 32.5729 4.73839 35.6673 7.83274C38.7616 10.9271 40.5 15.1239 40.5 19.5C40.5053 23.0732 39.3381 26.5495 37.1775 29.3955L37.176 29.4C37.176 29.4 36.726 29.991 36.6585 30.0705L24 45ZM13.218 27.5925C13.221 27.5925 13.569 28.0545 13.6485 28.1535L24 40.362L34.365 28.137C34.431 28.0545 34.782 27.5895 34.7835 27.588C36.5492 25.2617 37.5035 22.4205 37.5 19.5C37.5 15.9196 36.0777 12.4858 33.546 9.95406C31.0142 7.42232 27.5804 6 24 6C20.4196 6 16.9858 7.42232 14.4541 9.95406C11.9223 12.4858 10.5 15.9196 10.5 19.5C10.4969 22.4224 11.4522 25.2651 13.2195 27.5925H13.218Z" fill="#7DC04D"/>
<path d="M31.5 27H28.5V15H19.5V27H16.5V15C16.5008 14.2046 16.8171 13.442 17.3796 12.8796C17.942 12.3171 18.7046 12.0008 19.5 12H28.5C29.2954 12.0008 30.058 12.3171 30.6204 12.8796C31.1829 13.442 31.4992 14.2046 31.5 15V27Z" fill="#7DC04D"/>
<path d="M22.5 24H25.5V27H22.5V24ZM22.5 18H25.5V21H22.5V18Z" fill="#7DC04D"/>
</svg>
