<svg width="48" height="48" viewBox="0 0 48 48" fill="none" xmlns="http://www.w3.org/2000/svg">
<path d="M6 18H42V15C42 14.2044 41.6839 13.4413 41.1213 12.8787C40.5587 12.3161 39.7957 12 39 12H9C8.20435 12 7.44129 12.3161 6.87868 12.8787C6.31607 13.4413 6 14.2044 6 15V18ZM6 21V36C6 36.7956 6.31607 37.5587 6.87868 38.1213C7.44129 38.6839 8.20435 39 9 39H39C39.7957 39 40.5587 38.6839 41.1213 38.1213C41.6839 37.5587 42 36.7956 42 36V21H6ZM9 9H39C40.5913 9 42.1174 9.63214 43.2426 10.7574C44.3679 11.8826 45 13.4087 45 15V36C45 37.5913 44.3679 39.1174 43.2426 40.2426C42.1174 41.3679 40.5913 42 39 42H9C7.4087 42 5.88258 41.3679 4.75736 40.2426C3.63214 39.1174 3 37.5913 3 36V15C3 13.4087 3.63214 11.8826 4.75736 10.7574C5.88258 9.63214 7.4087 9 9 9Z" fill="#3ABEF0"/>
<path d="M18 6V9H30V6H18ZM18 3H30C30.7956 3 31.5587 3.31607 32.1213 3.87868C32.6839 4.44129 33 5.20435 33 6V9C33 9.79565 32.6839 10.5587 32.1213 11.1213C31.5587 11.6839 30.7956 12 30 12H18C17.2044 12 16.4413 11.6839 15.8787 11.1213C15.3161 10.5587 15 9.79565 15 9V6C15 5.20435 15.3161 4.44129 15.8787 3.87868C16.4413 3.31607 17.2044 3 18 3Z" fill="#3ABEF0"/>
</svg>
