<svg width="48" height="48" viewBox="0 0 48 48" fill="none" xmlns="http://www.w3.org/2000/svg">
<path d="M46.3126 18.6255C46.0975 17.958 45.7018 17.363 45.1695 16.9065C44.6371 16.4499 43.9888 16.1496 43.2963 16.0387L32.4298 14.2728L27.3925 4.48395C27.0716 3.86078 26.5853 3.33804 25.9869 2.97307C25.3884 2.60811 24.701 2.41504 24.0001 2.41504C23.2992 2.41504 22.6118 2.60811 22.0134 2.97307C21.415 3.33804 20.9286 3.86078 20.6078 4.48395L15.5704 14.2728L4.70412 16.0387C4.01231 16.1513 3.36488 16.4523 2.83287 16.9087C2.30086 17.365 1.90483 17.9591 1.68823 18.6257C1.47163 19.2923 1.44283 20.0057 1.60499 20.6876C1.76715 21.3695 2.114 21.9935 2.6075 22.4913L10.3606 30.307L8.6825 41.1872C8.57481 41.8802 8.66034 42.5894 8.92966 43.237C9.19899 43.8845 9.64167 44.4452 10.209 44.8574C10.7764 45.2696 11.4465 45.5174 12.1455 45.5734C12.8446 45.6295 13.5456 45.4917 14.1714 45.1751L24.0001 40.2167L33.8292 45.1751C34.455 45.491 35.1558 45.6283 35.8546 45.572C36.5534 45.5157 37.2231 45.2679 37.7903 44.8558C38.3575 44.4437 38.8001 43.8833 39.0696 43.2361C39.3391 42.589 39.4251 41.88 39.318 41.1872L37.6399 30.307L45.393 22.4913C45.8881 21.9945 46.236 21.3704 46.3983 20.6881C46.5606 20.0059 46.531 19.292 46.3126 18.6255ZM43.2629 20.3786L34.4439 29.2688L36.353 41.6448C36.3767 41.793 36.3588 41.9449 36.3015 42.0836C36.2441 42.2223 36.1495 42.3424 36.0281 42.4306C35.9066 42.5188 35.7631 42.5717 35.6135 42.5834C35.4639 42.5951 35.3139 42.5651 35.1803 42.4968L24.0001 36.8566L12.8199 42.497C12.6862 42.5653 12.5363 42.5952 12.3866 42.5836C12.237 42.5719 12.0935 42.519 11.9721 42.4308C11.8507 42.3426 11.756 42.2225 11.6987 42.0838C11.6413 41.945 11.6235 41.7932 11.6472 41.645L13.5564 29.2688L4.7374 20.3785C4.63209 20.2721 4.55809 20.1388 4.52351 19.9931C4.48893 19.8475 4.49511 19.6951 4.54137 19.5527C4.58763 19.4103 4.67219 19.2834 4.78577 19.1859C4.89936 19.0884 5.0376 19.024 5.18534 18.9998L17.5454 16.9911L23.2753 5.85673C23.3439 5.72355 23.4477 5.61182 23.5756 5.53381C23.7035 5.4558 23.8503 5.41453 24.0001 5.41453C24.1499 5.41453 24.2968 5.4558 24.4246 5.53381C24.5525 5.61182 24.6564 5.72355 24.7249 5.85673L30.4548 16.9911L42.8149 18.9998C42.9626 19.024 43.1009 19.0884 43.2145 19.1859C43.3281 19.2834 43.4126 19.4103 43.4589 19.5527C43.5051 19.6951 43.5113 19.8475 43.4767 19.9931C43.4422 20.1388 43.3682 20.2721 43.2628 20.3785L43.2629 20.3786Z" fill="#FFA26B"/>
</svg>
