<svg width="63" height="49" viewBox="0 0 63 49" fill="none" xmlns="http://www.w3.org/2000/svg">
<path fill-rule="evenodd" clip-rule="evenodd" d="M53.2687 26.18C54.317 26.0677 55.125 25.3585 55.125 24.5002C55.125 23.564 54.1634 22.805 52.9773 22.805L15.2252 22.805L28.8627 12.0839L29.0711 11.8941C29.6967 11.2315 29.6299 10.2896 28.869 9.68651C28.032 9.02311 26.6721 9.02089 25.8316 9.68154L8.53727 23.2759C8.43428 23.3537 8.34111 23.4396 8.25934 23.5322C7.67382 24.1942 7.75631 25.1126 8.50676 25.7024L25.8318 39.3186L26.0731 39.4823C26.9152 39.9733 28.1082 39.9165 28.8691 39.3134C29.706 38.6499 29.7031 37.5766 28.8626 36.916L15.2218 26.1955L52.9773 26.1955L53.2687 26.18Z" fill="#1F3549"/>
</svg>
