<svg width="63" height="49" viewBox="0 0 63 49" fill="none" xmlns="http://www.w3.org/2000/svg">
<path fill-rule="evenodd" clip-rule="evenodd" d="M9.73129 22.82C8.68299 22.9323 7.875 23.6415 7.875 24.4998C7.875 25.436 8.83657 26.195 10.0227 26.195H47.7748L34.1373 36.9161L33.9289 37.1059C33.3033 37.7685 33.3701 38.7104 34.131 39.3135C34.968 39.9769 36.3279 39.9791 37.1684 39.3185L54.4629 25.724C54.5644 25.6472 54.6565 25.5626 54.7374 25.4714C55.3265 24.8091 55.2451 23.8885 54.4933 23.2976L37.1682 9.68144L36.9269 9.51771C36.0848 9.02672 34.8918 9.08347 34.1309 9.68661C33.294 10.3501 33.2969 11.4234 34.1374 12.084L47.7782 22.8045L10.0227 22.8045L9.73129 22.82Z" fill="#1F3549"/>
</svg>
