<svg width="247" height="421" viewBox="0 0 247 421" fill="none" xmlns="http://www.w3.org/2000/svg">
<ellipse cx="6.62162" cy="6.19118" rx="6.62162" ry="6.19118" fill="#E5D6EC"/>
<ellipse cx="6.62162" cy="43.3382" rx="6.62162" ry="6.19118" fill="#E5D6EC"/>
<ellipse cx="6.62162" cy="80.4853" rx="6.62162" ry="6.19117" fill="#E5D6EC"/>
<ellipse cx="6.62162" cy="117.632" rx="6.62162" ry="6.19118" fill="#E5D6EC"/>
<ellipse cx="6.62162" cy="154.779" rx="6.62162" ry="6.19118" fill="#E5D6EC"/>
<ellipse cx="6.62162" cy="191.926" rx="6.62162" ry="6.19118" fill="#E5D6EC"/>
<ellipse cx="6.62162" cy="229.074" rx="6.62162" ry="6.19118" fill="#E5D6EC"/>
<ellipse cx="6.62162" cy="266.221" rx="6.62162" ry="6.19118" fill="#E5D6EC"/>
<ellipse cx="6.62162" cy="303.368" rx="6.62162" ry="6.19116" fill="#E5D6EC"/>
<ellipse cx="6.62162" cy="340.515" rx="6.62162" ry="6.19118" fill="#E5D6EC"/>
<ellipse cx="6.62162" cy="377.662" rx="6.62162" ry="6.19118" fill="#E5D6EC"/>
<ellipse cx="6.62162" cy="414.809" rx="6.62162" ry="6.19118" fill="#E5D6EC"/>
<ellipse cx="46.3511" cy="6.19118" rx="6.62162" ry="6.19118" fill="#E5D6EC"/>
<ellipse cx="46.3511" cy="43.3382" rx="6.62162" ry="6.19118" fill="#E5D6EC"/>
<ellipse cx="46.3511" cy="80.4853" rx="6.62162" ry="6.19117" fill="#E5D6EC"/>
<ellipse cx="46.3511" cy="117.632" rx="6.62162" ry="6.19118" fill="#E5D6EC"/>
<ellipse cx="46.3511" cy="154.779" rx="6.62162" ry="6.19118" fill="#E5D6EC"/>
<ellipse cx="46.3511" cy="191.926" rx="6.62162" ry="6.19118" fill="#E5D6EC"/>
<ellipse cx="46.3511" cy="229.074" rx="6.62162" ry="6.19118" fill="#E5D6EC"/>
<ellipse cx="46.3511" cy="266.221" rx="6.62162" ry="6.19118" fill="#E5D6EC"/>
<ellipse cx="46.3511" cy="303.368" rx="6.62162" ry="6.19116" fill="#E5D6EC"/>
<ellipse cx="46.3511" cy="340.515" rx="6.62162" ry="6.19118" fill="#E5D6EC"/>
<ellipse cx="46.3511" cy="377.662" rx="6.62162" ry="6.19118" fill="#E5D6EC"/>
<ellipse cx="46.3511" cy="414.809" rx="6.62162" ry="6.19118" fill="#E5D6EC"/>
<ellipse cx="86.0811" cy="6.19118" rx="6.62162" ry="6.19118" fill="#E5D6EC"/>
<ellipse cx="86.0811" cy="43.3382" rx="6.62162" ry="6.19118" fill="#E5D6EC"/>
<ellipse cx="86.0811" cy="80.4853" rx="6.62162" ry="6.19117" fill="#E5D6EC"/>
<ellipse cx="86.0811" cy="117.632" rx="6.62162" ry="6.19118" fill="#E5D6EC"/>
<ellipse cx="86.0811" cy="154.779" rx="6.62162" ry="6.19118" fill="#E5D6EC"/>
<ellipse cx="86.0811" cy="191.926" rx="6.62162" ry="6.19118" fill="#E5D6EC"/>
<ellipse cx="86.0811" cy="229.074" rx="6.62162" ry="6.19118" fill="#E5D6EC"/>
<ellipse cx="86.0811" cy="266.221" rx="6.62162" ry="6.19118" fill="#E5D6EC"/>
<ellipse cx="86.0811" cy="303.368" rx="6.62162" ry="6.19116" fill="#E5D6EC"/>
<ellipse cx="86.0811" cy="340.515" rx="6.62162" ry="6.19118" fill="#E5D6EC"/>
<ellipse cx="86.0811" cy="377.662" rx="6.62162" ry="6.19118" fill="#E5D6EC"/>
<ellipse cx="86.0811" cy="414.809" rx="6.62162" ry="6.19118" fill="#E5D6EC"/>
<ellipse cx="125.811" cy="6.19118" rx="6.62162" ry="6.19118" fill="#E5D6EC"/>
<ellipse cx="125.811" cy="43.3382" rx="6.62162" ry="6.19118" fill="#E5D6EC"/>
<ellipse cx="125.811" cy="80.4853" rx="6.62162" ry="6.19117" fill="#E5D6EC"/>
<ellipse cx="125.811" cy="117.632" rx="6.62162" ry="6.19118" fill="#E5D6EC"/>
<ellipse cx="125.811" cy="154.779" rx="6.62162" ry="6.19118" fill="#E5D6EC"/>
<ellipse cx="125.811" cy="191.926" rx="6.62162" ry="6.19118" fill="#E5D6EC"/>
<ellipse cx="125.811" cy="229.074" rx="6.62162" ry="6.19118" fill="#E5D6EC"/>
<ellipse cx="125.811" cy="266.221" rx="6.62162" ry="6.19118" fill="#E5D6EC"/>
<ellipse cx="125.811" cy="303.368" rx="6.62162" ry="6.19116" fill="#E5D6EC"/>
<ellipse cx="125.811" cy="340.515" rx="6.62162" ry="6.19118" fill="#E5D6EC"/>
<ellipse cx="125.811" cy="377.662" rx="6.62162" ry="6.19118" fill="#E5D6EC"/>
<ellipse cx="125.811" cy="414.809" rx="6.62162" ry="6.19118" fill="#E5D6EC"/>
<ellipse cx="165.541" cy="6.19118" rx="6.6216" ry="6.19118" fill="#E5D6EC"/>
<ellipse cx="165.541" cy="43.3382" rx="6.6216" ry="6.19118" fill="#E5D6EC"/>
<ellipse cx="165.541" cy="80.4853" rx="6.6216" ry="6.19117" fill="#E5D6EC"/>
<ellipse cx="165.541" cy="117.632" rx="6.6216" ry="6.19118" fill="#E5D6EC"/>
<ellipse cx="165.541" cy="154.779" rx="6.6216" ry="6.19118" fill="#E5D6EC"/>
<ellipse cx="165.541" cy="191.926" rx="6.6216" ry="6.19118" fill="#E5D6EC"/>
<ellipse cx="165.541" cy="229.074" rx="6.6216" ry="6.19118" fill="#E5D6EC"/>
<ellipse cx="165.541" cy="266.221" rx="6.6216" ry="6.19118" fill="#E5D6EC"/>
<ellipse cx="165.541" cy="303.368" rx="6.6216" ry="6.19116" fill="#E5D6EC"/>
<ellipse cx="165.541" cy="340.515" rx="6.6216" ry="6.19118" fill="#E5D6EC"/>
<ellipse cx="165.541" cy="377.662" rx="6.6216" ry="6.19118" fill="#E5D6EC"/>
<ellipse cx="165.541" cy="414.809" rx="6.6216" ry="6.19118" fill="#E5D6EC"/>
<ellipse cx="205.27" cy="6.19118" rx="6.62162" ry="6.19118" fill="#E5D6EC"/>
<ellipse cx="205.27" cy="43.3382" rx="6.62162" ry="6.19118" fill="#E5D6EC"/>
<ellipse cx="205.27" cy="80.4853" rx="6.62162" ry="6.19117" fill="#E5D6EC"/>
<ellipse cx="205.27" cy="117.632" rx="6.62162" ry="6.19118" fill="#E5D6EC"/>
<ellipse cx="205.27" cy="154.779" rx="6.62162" ry="6.19118" fill="#E5D6EC"/>
<ellipse cx="205.27" cy="191.926" rx="6.62162" ry="6.19118" fill="#E5D6EC"/>
<ellipse cx="205.27" cy="229.074" rx="6.62162" ry="6.19118" fill="#E5D6EC"/>
<ellipse cx="205.27" cy="266.221" rx="6.62162" ry="6.19118" fill="#E5D6EC"/>
<ellipse cx="205.27" cy="303.368" rx="6.62162" ry="6.19116" fill="#E5D6EC"/>
<ellipse cx="205.27" cy="340.515" rx="6.62162" ry="6.19118" fill="#E5D6EC"/>
<ellipse cx="205.27" cy="377.662" rx="6.62162" ry="6.19118" fill="#E5D6EC"/>
<ellipse cx="205.27" cy="414.809" rx="6.62162" ry="6.19118" fill="#E5D6EC"/>
<ellipse cx="245" cy="6.19118" rx="6.62162" ry="6.19118" fill="#E5D6EC"/>
<ellipse cx="245" cy="43.3382" rx="6.62162" ry="6.19118" fill="#E5D6EC"/>
<ellipse cx="245" cy="80.4853" rx="6.62162" ry="6.19117" fill="#E5D6EC"/>
<ellipse cx="245" cy="117.632" rx="6.62162" ry="6.19118" fill="#E5D6EC"/>
<ellipse cx="245" cy="154.779" rx="6.62162" ry="6.19118" fill="#E5D6EC"/>
<ellipse cx="245" cy="191.926" rx="6.62162" ry="6.19118" fill="#E5D6EC"/>
<ellipse cx="245" cy="229.074" rx="6.62162" ry="6.19118" fill="#E5D6EC"/>
<ellipse cx="245" cy="266.221" rx="6.62162" ry="6.19118" fill="#E5D6EC"/>
<ellipse cx="245" cy="303.368" rx="6.62162" ry="6.19116" fill="#E5D6EC"/>
<ellipse cx="245" cy="340.515" rx="6.62162" ry="6.19118" fill="#E5D6EC"/>
<ellipse cx="245" cy="377.662" rx="6.62162" ry="6.19118" fill="#E5D6EC"/>
<ellipse cx="245" cy="414.809" rx="6.62162" ry="6.19118" fill="#E5D6EC"/>
</svg>
