<svg width="238" height="243" viewBox="0 0 238 243" fill="none" xmlns="http://www.w3.org/2000/svg">
<ellipse cx="4.40543" cy="3.57353" rx="3.48649" ry="3.57353" fill="#3ABEF0"/>
<ellipse cx="4.40543" cy="25.0147" rx="3.48649" ry="3.57353" fill="#3ABEF0"/>
<ellipse cx="4.40543" cy="46.4558" rx="3.48649" ry="3.57353" fill="#3ABEF0"/>
<ellipse cx="4.40543" cy="67.897" rx="3.48649" ry="3.57353" fill="#3ABEF0"/>
<ellipse cx="4.40543" cy="89.3382" rx="3.48649" ry="3.57353" fill="#3ABEF0"/>
<ellipse cx="4.40543" cy="110.779" rx="3.48649" ry="3.57353" fill="#3ABEF0"/>
<ellipse cx="4.40543" cy="132.221" rx="3.48649" ry="3.57353" fill="#3ABEF0"/>
<ellipse cx="4.40543" cy="153.662" rx="3.48649" ry="3.57353" fill="#3ABEF0"/>
<ellipse cx="4.40543" cy="175.103" rx="3.48649" ry="3.57352" fill="#3ABEF0"/>
<ellipse cx="4.40543" cy="196.544" rx="3.48649" ry="3.57352" fill="#3ABEF0"/>
<ellipse cx="4.40543" cy="217.985" rx="3.48649" ry="3.57353" fill="#3ABEF0"/>
<ellipse cx="4.40543" cy="239.426" rx="3.48649" ry="3.57352" fill="#3ABEF0"/>
<ellipse cx="25.3244" cy="3.57353" rx="3.48649" ry="3.57353" fill="#3ABEF0"/>
<ellipse cx="25.3244" cy="25.0147" rx="3.48649" ry="3.57353" fill="#3ABEF0"/>
<ellipse cx="25.3244" cy="46.4558" rx="3.48649" ry="3.57353" fill="#3ABEF0"/>
<ellipse cx="25.3244" cy="67.897" rx="3.48649" ry="3.57353" fill="#3ABEF0"/>
<ellipse cx="25.3244" cy="89.3382" rx="3.48649" ry="3.57353" fill="#3ABEF0"/>
<ellipse cx="25.3244" cy="110.779" rx="3.48649" ry="3.57353" fill="#3ABEF0"/>
<ellipse cx="25.3244" cy="132.221" rx="3.48649" ry="3.57353" fill="#3ABEF0"/>
<ellipse cx="25.3244" cy="153.662" rx="3.48649" ry="3.57353" fill="#3ABEF0"/>
<ellipse cx="25.3244" cy="175.103" rx="3.48649" ry="3.57352" fill="#3ABEF0"/>
<ellipse cx="25.3244" cy="196.544" rx="3.48649" ry="3.57352" fill="#3ABEF0"/>
<ellipse cx="25.3244" cy="217.985" rx="3.48649" ry="3.57353" fill="#3ABEF0"/>
<ellipse cx="25.3244" cy="239.426" rx="3.48649" ry="3.57352" fill="#3ABEF0"/>
<ellipse cx="46.2433" cy="3.57353" rx="3.48649" ry="3.57353" fill="#3ABEF0"/>
<ellipse cx="46.2433" cy="25.0147" rx="3.48649" ry="3.57353" fill="#3ABEF0"/>
<ellipse cx="46.2433" cy="46.4558" rx="3.48649" ry="3.57353" fill="#3ABEF0"/>
<ellipse cx="46.2433" cy="67.897" rx="3.48649" ry="3.57353" fill="#3ABEF0"/>
<ellipse cx="46.2433" cy="89.3382" rx="3.48649" ry="3.57353" fill="#3ABEF0"/>
<ellipse cx="46.2433" cy="110.779" rx="3.48649" ry="3.57353" fill="#3ABEF0"/>
<ellipse cx="46.2433" cy="132.221" rx="3.48649" ry="3.57353" fill="#3ABEF0"/>
<ellipse cx="46.2433" cy="153.662" rx="3.48649" ry="3.57353" fill="#3ABEF0"/>
<ellipse cx="46.2433" cy="175.103" rx="3.48649" ry="3.57352" fill="#3ABEF0"/>
<ellipse cx="46.2433" cy="196.544" rx="3.48649" ry="3.57352" fill="#3ABEF0"/>
<ellipse cx="46.2433" cy="217.985" rx="3.48649" ry="3.57353" fill="#3ABEF0"/>
<ellipse cx="46.2433" cy="239.426" rx="3.48649" ry="3.57352" fill="#3ABEF0"/>
<ellipse cx="67.1623" cy="3.57353" rx="3.48648" ry="3.57353" fill="#3ABEF0"/>
<ellipse cx="67.1623" cy="25.0147" rx="3.48648" ry="3.57353" fill="#3ABEF0"/>
<ellipse cx="67.1623" cy="46.4558" rx="3.48648" ry="3.57353" fill="#3ABEF0"/>
<ellipse cx="67.1623" cy="67.897" rx="3.48648" ry="3.57353" fill="#3ABEF0"/>
<ellipse cx="67.1623" cy="89.3382" rx="3.48648" ry="3.57353" fill="#3ABEF0"/>
<ellipse cx="67.1623" cy="110.779" rx="3.48648" ry="3.57353" fill="#3ABEF0"/>
<ellipse cx="67.1623" cy="132.221" rx="3.48648" ry="3.57353" fill="#3ABEF0"/>
<ellipse cx="67.1623" cy="153.662" rx="3.48648" ry="3.57353" fill="#3ABEF0"/>
<ellipse cx="67.1623" cy="175.103" rx="3.48648" ry="3.57352" fill="#3ABEF0"/>
<ellipse cx="67.1623" cy="196.544" rx="3.48648" ry="3.57352" fill="#3ABEF0"/>
<ellipse cx="67.1623" cy="217.985" rx="3.48648" ry="3.57353" fill="#3ABEF0"/>
<ellipse cx="67.1623" cy="239.426" rx="3.48648" ry="3.57352" fill="#3ABEF0"/>
<ellipse cx="88.0812" cy="3.57353" rx="3.48649" ry="3.57353" fill="#3ABEF0"/>
<ellipse cx="88.0812" cy="25.0147" rx="3.48649" ry="3.57353" fill="#3ABEF0"/>
<ellipse cx="88.0812" cy="46.4558" rx="3.48649" ry="3.57353" fill="#3ABEF0"/>
<ellipse cx="88.0812" cy="67.897" rx="3.48649" ry="3.57353" fill="#3ABEF0"/>
<ellipse cx="88.0812" cy="89.3382" rx="3.48649" ry="3.57353" fill="#3ABEF0"/>
<ellipse cx="88.0812" cy="110.779" rx="3.48649" ry="3.57353" fill="#3ABEF0"/>
<ellipse cx="88.0812" cy="132.221" rx="3.48649" ry="3.57353" fill="#3ABEF0"/>
<ellipse cx="88.0812" cy="153.662" rx="3.48649" ry="3.57353" fill="#3ABEF0"/>
<ellipse cx="88.0812" cy="175.103" rx="3.48649" ry="3.57352" fill="#3ABEF0"/>
<ellipse cx="88.0812" cy="196.544" rx="3.48649" ry="3.57352" fill="#3ABEF0"/>
<ellipse cx="88.0812" cy="217.985" rx="3.48649" ry="3.57353" fill="#3ABEF0"/>
<ellipse cx="88.0812" cy="239.426" rx="3.48649" ry="3.57352" fill="#3ABEF0"/>
<ellipse cx="109" cy="3.57353" rx="3.48648" ry="3.57353" fill="#3ABEF0"/>
<ellipse cx="109" cy="25.0147" rx="3.48648" ry="3.57353" fill="#3ABEF0"/>
<ellipse cx="109" cy="46.4558" rx="3.48648" ry="3.57353" fill="#3ABEF0"/>
<ellipse cx="109" cy="67.897" rx="3.48648" ry="3.57353" fill="#3ABEF0"/>
<ellipse cx="109" cy="89.3382" rx="3.48648" ry="3.57353" fill="#3ABEF0"/>
<ellipse cx="109" cy="110.779" rx="3.48648" ry="3.57353" fill="#3ABEF0"/>
<ellipse cx="109" cy="132.221" rx="3.48648" ry="3.57353" fill="#3ABEF0"/>
<ellipse cx="109" cy="153.662" rx="3.48648" ry="3.57353" fill="#3ABEF0"/>
<ellipse cx="109" cy="175.103" rx="3.48648" ry="3.57352" fill="#3ABEF0"/>
<ellipse cx="109" cy="196.544" rx="3.48648" ry="3.57352" fill="#3ABEF0"/>
<ellipse cx="109" cy="217.985" rx="3.48648" ry="3.57353" fill="#3ABEF0"/>
<ellipse cx="109" cy="239.426" rx="3.48648" ry="3.57352" fill="#3ABEF0"/>
<ellipse cx="129.919" cy="3.57353" rx="3.48649" ry="3.57353" fill="#3ABEF0"/>
<ellipse cx="150.838" cy="3.57353" rx="3.48648" ry="3.57353" fill="#3ABEF0"/>
<ellipse cx="171.757" cy="3.57353" rx="3.4865" ry="3.57353" fill="#3ABEF0"/>
<ellipse cx="192.675" cy="3.57353" rx="3.48649" ry="3.57353" fill="#3ABEF0"/>
<ellipse cx="213.594" cy="3.57353" rx="3.48649" ry="3.57353" fill="#3ABEF0"/>
<ellipse cx="234.513" cy="3.57353" rx="3.48649" ry="3.57353" fill="#3ABEF0"/>
<ellipse cx="129.919" cy="25.0147" rx="3.48649" ry="3.57353" fill="#3ABEF0"/>
<ellipse cx="150.838" cy="25.0147" rx="3.48648" ry="3.57353" fill="#3ABEF0"/>
<ellipse cx="171.757" cy="25.0147" rx="3.4865" ry="3.57353" fill="#3ABEF0"/>
<ellipse cx="192.675" cy="25.0147" rx="3.48649" ry="3.57353" fill="#3ABEF0"/>
<ellipse cx="213.594" cy="25.0147" rx="3.48649" ry="3.57353" fill="#3ABEF0"/>
<ellipse cx="234.513" cy="25.0147" rx="3.48649" ry="3.57353" fill="#3ABEF0"/>
<ellipse cx="129.919" cy="46.4558" rx="3.48649" ry="3.57353" fill="#3ABEF0"/>
<ellipse cx="150.838" cy="46.4558" rx="3.48648" ry="3.57353" fill="#3ABEF0"/>
<ellipse cx="171.757" cy="46.4558" rx="3.4865" ry="3.57353" fill="#3ABEF0"/>
<ellipse cx="192.675" cy="46.4558" rx="3.48649" ry="3.57353" fill="#3ABEF0"/>
<ellipse cx="213.594" cy="46.4558" rx="3.48649" ry="3.57353" fill="#3ABEF0"/>
<ellipse cx="234.513" cy="46.4558" rx="3.48649" ry="3.57353" fill="#3ABEF0"/>
<ellipse cx="129.919" cy="67.897" rx="3.48649" ry="3.57353" fill="#3ABEF0"/>
<ellipse cx="150.838" cy="67.897" rx="3.48648" ry="3.57353" fill="#3ABEF0"/>
<ellipse cx="171.757" cy="67.897" rx="3.4865" ry="3.57353" fill="#3ABEF0"/>
<ellipse cx="192.675" cy="67.897" rx="3.48649" ry="3.57353" fill="#3ABEF0"/>
<ellipse cx="213.594" cy="67.897" rx="3.48649" ry="3.57353" fill="#3ABEF0"/>
<ellipse cx="234.513" cy="67.897" rx="3.48649" ry="3.57353" fill="#3ABEF0"/>
<ellipse cx="129.919" cy="89.3382" rx="3.48649" ry="3.57353" fill="#3ABEF0"/>
<ellipse cx="150.838" cy="89.3382" rx="3.48648" ry="3.57353" fill="#3ABEF0"/>
<ellipse cx="171.757" cy="89.3382" rx="3.4865" ry="3.57353" fill="#3ABEF0"/>
<ellipse cx="192.675" cy="89.3382" rx="3.48649" ry="3.57353" fill="#3ABEF0"/>
<ellipse cx="213.594" cy="89.3382" rx="3.48649" ry="3.57353" fill="#3ABEF0"/>
<ellipse cx="234.513" cy="89.3382" rx="3.48649" ry="3.57353" fill="#3ABEF0"/>
<ellipse cx="129.919" cy="110.779" rx="3.48649" ry="3.57353" fill="#3ABEF0"/>
<ellipse cx="150.838" cy="110.779" rx="3.48648" ry="3.57353" fill="#3ABEF0"/>
<ellipse cx="171.757" cy="110.779" rx="3.4865" ry="3.57353" fill="#3ABEF0"/>
<ellipse cx="192.675" cy="110.779" rx="3.48649" ry="3.57353" fill="#3ABEF0"/>
<ellipse cx="213.594" cy="110.779" rx="3.48649" ry="3.57353" fill="#3ABEF0"/>
<ellipse cx="234.513" cy="110.779" rx="3.48649" ry="3.57353" fill="#3ABEF0"/>
<ellipse cx="129.919" cy="132.221" rx="3.48649" ry="3.57353" fill="#3ABEF0"/>
<ellipse cx="150.838" cy="132.221" rx="3.48648" ry="3.57353" fill="#3ABEF0"/>
<ellipse cx="171.757" cy="132.221" rx="3.4865" ry="3.57353" fill="#3ABEF0"/>
<ellipse cx="192.675" cy="132.221" rx="3.48649" ry="3.57353" fill="#3ABEF0"/>
<ellipse cx="213.594" cy="132.221" rx="3.48649" ry="3.57353" fill="#3ABEF0"/>
<ellipse cx="234.513" cy="132.221" rx="3.48649" ry="3.57353" fill="#3ABEF0"/>
<ellipse cx="129.919" cy="153.662" rx="3.48649" ry="3.57353" fill="#3ABEF0"/>
<ellipse cx="150.838" cy="153.662" rx="3.48648" ry="3.57353" fill="#3ABEF0"/>
<ellipse cx="171.757" cy="153.662" rx="3.4865" ry="3.57353" fill="#3ABEF0"/>
<ellipse cx="192.675" cy="153.662" rx="3.48649" ry="3.57353" fill="#3ABEF0"/>
<ellipse cx="213.594" cy="153.662" rx="3.48649" ry="3.57353" fill="#3ABEF0"/>
<ellipse cx="234.513" cy="153.662" rx="3.48649" ry="3.57353" fill="#3ABEF0"/>
<ellipse cx="129.919" cy="175.103" rx="3.48649" ry="3.57352" fill="#3ABEF0"/>
<ellipse cx="150.838" cy="175.103" rx="3.48648" ry="3.57352" fill="#3ABEF0"/>
<ellipse cx="171.757" cy="175.103" rx="3.4865" ry="3.57352" fill="#3ABEF0"/>
<ellipse cx="192.675" cy="175.103" rx="3.48649" ry="3.57352" fill="#3ABEF0"/>
<ellipse cx="213.594" cy="175.103" rx="3.48649" ry="3.57352" fill="#3ABEF0"/>
<ellipse cx="234.513" cy="175.103" rx="3.48649" ry="3.57352" fill="#3ABEF0"/>
<ellipse cx="129.919" cy="196.544" rx="3.48649" ry="3.57352" fill="#3ABEF0"/>
<ellipse cx="150.838" cy="196.544" rx="3.48648" ry="3.57352" fill="#3ABEF0"/>
<ellipse cx="171.757" cy="196.544" rx="3.4865" ry="3.57352" fill="#3ABEF0"/>
<ellipse cx="192.675" cy="196.544" rx="3.48649" ry="3.57352" fill="#3ABEF0"/>
<ellipse cx="213.594" cy="196.544" rx="3.48649" ry="3.57352" fill="#3ABEF0"/>
<ellipse cx="234.513" cy="196.544" rx="3.48649" ry="3.57352" fill="#3ABEF0"/>
<ellipse cx="129.919" cy="217.985" rx="3.48649" ry="3.57353" fill="#3ABEF0"/>
<ellipse cx="150.838" cy="217.985" rx="3.48648" ry="3.57353" fill="#3ABEF0"/>
<ellipse cx="171.757" cy="217.985" rx="3.4865" ry="3.57353" fill="#3ABEF0"/>
<ellipse cx="192.675" cy="217.985" rx="3.48649" ry="3.57353" fill="#3ABEF0"/>
<ellipse cx="213.594" cy="217.985" rx="3.48649" ry="3.57353" fill="#3ABEF0"/>
<ellipse cx="234.513" cy="217.985" rx="3.48649" ry="3.57353" fill="#3ABEF0"/>
<ellipse cx="129.919" cy="239.426" rx="3.48649" ry="3.57352" fill="#3ABEF0"/>
<ellipse cx="150.838" cy="239.426" rx="3.48648" ry="3.57352" fill="#3ABEF0"/>
<ellipse cx="171.757" cy="239.426" rx="3.4865" ry="3.57352" fill="#3ABEF0"/>
<ellipse cx="192.675" cy="239.426" rx="3.48649" ry="3.57352" fill="#3ABEF0"/>
<ellipse cx="213.594" cy="239.426" rx="3.48649" ry="3.57352" fill="#3ABEF0"/>
<ellipse cx="234.513" cy="239.426" rx="3.48649" ry="3.57352" fill="#3ABEF0"/>
</svg>
