<svg width="32" height="32" viewBox="0 0 32 32" fill="none" xmlns="http://www.w3.org/2000/svg">
    <path fill-rule="evenodd" clip-rule="evenodd" d="M1.33301 3.78401C1.33301 3.13406 1.5912 2.51072 2.05079 2.05113C2.51038 1.59154 3.13372 1.33335 3.78368 1.33335H28.213C28.5351 1.33282 28.8542 1.39583 29.1519 1.51877C29.4496 1.64171 29.7201 1.82216 29.948 2.0498C30.1759 2.27743 30.3566 2.54778 30.4799 2.84536C30.6032 3.14294 30.6665 3.46191 30.6663 3.78401V28.2133C30.6667 28.5355 30.6035 28.8546 30.4804 29.1523C30.3574 29.45 30.1768 29.7206 29.949 29.9484C29.7213 30.1763 29.4509 30.357 29.1532 30.4803C28.8555 30.6035 28.5365 30.6669 28.2143 30.6667H3.78368C3.46174 30.6667 3.14295 30.6032 2.84554 30.48C2.54812 30.3568 2.2779 30.1761 2.05032 29.9484C1.82274 29.7207 1.64225 29.4504 1.51917 29.1529C1.39609 28.8554 1.33283 28.5366 1.33301 28.2147V3.78401ZM12.9437 12.5173H16.9157V14.512C17.489 13.3653 18.9557 12.3333 21.1597 12.3333C25.385 12.3333 26.3863 14.6173 26.3863 18.808V26.5707H22.1103V19.7627C22.1103 17.376 21.537 16.0293 20.081 16.0293C18.061 16.0293 17.221 17.4813 17.221 19.7627V26.5707H12.9437V12.5173ZM5.61034 26.388H9.88768V12.3333H5.61034V26.3867V26.388ZM10.4997 7.74935C10.5077 8.11558 10.4426 8.47973 10.308 8.82043C10.1734 9.16114 9.97214 9.47153 9.71598 9.73339C9.45983 9.99525 9.15394 10.2033 8.81628 10.3454C8.47862 10.4874 8.11599 10.5606 7.74968 10.5606C7.38336 10.5606 7.02073 10.4874 6.68307 10.3454C6.34541 10.2033 6.03953 9.99525 5.78337 9.73339C5.52721 9.47153 5.32593 9.16114 5.19136 8.82043C5.05678 8.47973 4.99161 8.11558 4.99968 7.74935C5.01551 7.03049 5.31219 6.3464 5.82619 5.8436C6.34019 5.34079 7.03064 5.05924 7.74968 5.05924C8.46871 5.05924 9.15916 5.34079 9.67316 5.8436C10.1872 6.3464 10.4838 7.03049 10.4997 7.74935Z" fill="#FAFAFA"/>
</svg>