<svg width="25" height="25" viewBox="0 0 25 25" fill="none" xmlns="http://www.w3.org/2000/svg">
<path d="M15.481 18.5626C15.181 18.5626 14.981 18.4626 14.781 18.2626C14.381 17.8626 14.381 17.2626 14.781 16.8626L19.781 11.8626C20.181 11.4626 20.781 11.4626 21.181 11.8626C21.581 12.2626 21.581 12.8626 21.181 13.2626L16.181 18.2626C15.981 18.4626 15.781 18.5626 15.481 18.5626Z" fill="#0085FF"/>
<path d="M20.481 13.5626C20.181 13.5626 19.981 13.4626 19.781 13.2626L14.781 8.26262C14.381 7.86262 14.381 7.26262 14.781 6.86262C15.181 6.46262 15.781 6.46262 16.181 6.86262L21.181 11.8626C21.581 12.2626 21.581 12.8626 21.181 13.2626C20.981 13.4626 20.781 13.5626 20.481 13.5626Z" fill="#0085FF"/>
<path d="M20.481 13.5626H4.48096C3.88096 13.5626 3.48096 13.1626 3.48096 12.5626C3.48096 11.9626 3.88096 11.5626 4.48096 11.5626H20.481C21.081 11.5626 21.481 11.9626 21.481 12.5626C21.481 13.1626 21.081 13.5626 20.481 13.5626Z" fill="#0085FF"/>
</svg>
