<svg width="220" height="44" viewBox="0 0 220 44" fill="none" xmlns="http://www.w3.org/2000/svg">
<path d="M20.3649 42.4829C19.2344 43.1293 16.8118 43.7756 13.7432 43.7756C4.86041 43.7756 0.176758 37.6355 0.176758 29.718C0.176758 20.0231 6.47546 14.6909 14.2277 14.6909C17.2963 14.6909 19.5574 15.3372 20.5264 15.9836L19.3959 20.9926C18.2653 20.5079 16.4888 20.0231 14.5507 20.0231C9.86707 20.0231 6.31395 23.0932 6.31395 29.3948C6.31395 35.0502 9.38255 38.605 14.5507 38.605C16.3273 38.605 18.2653 38.1202 19.3959 37.6355L20.3649 42.4829Z" fill="white"/>
<path d="M56.2195 38.4434C58.8036 38.605 60.5801 38.4434 62.5182 38.4434C68.3324 38.4434 71.724 34.8886 71.724 29.2333C71.724 22.9316 67.6864 19.8615 62.6797 19.8615C60.4186 19.8615 58.4806 19.6999 56.2195 20.0231L55.8965 15.0141C59.6111 14.6909 59.6111 14.6909 62.8412 14.6909C71.401 14.6909 78.3457 20.0231 78.3457 29.718C78.3457 37.7971 73.339 43.7756 63.4872 43.7756C59.9341 43.7756 58.8036 43.7756 56.2195 43.4524V38.4434Z" fill="white"/>
<path d="M49.2741 28.7487C49.2741 37.9588 44.106 43.6142 36.5152 43.6142C28.763 43.6142 24.4023 37.3125 24.4023 29.2334C24.4023 20.8312 29.2475 14.3679 36.9997 14.3679C45.075 14.5295 49.2741 20.9927 49.2741 28.7487ZM30.701 29.2334C30.701 34.7272 33.1236 38.6051 36.9997 38.6051C40.8759 38.6051 43.1369 34.5656 43.1369 28.9103C43.1369 23.9012 40.8759 19.5385 36.8382 19.5385C32.9621 19.5385 30.701 23.7396 30.701 29.2334Z" fill="white"/>
<path d="M100.472 31.8188H90.9431V38.4436H101.602V43.7758H85.1289V15.499H101.118V20.8312H91.1046V26.6482H100.633V31.8188H100.472Z" fill="white"/>
<path d="M108.224 15.499H114.038V38.4436H124.213V43.7758H108.062V15.499H108.224Z" fill="white"/>
<path d="M136.326 15.499V43.7758H130.512V15.499H136.326Z" fill="white"/>
<path d="M165.719 42.1599C163.943 42.8062 160.551 43.7757 157.16 43.7757C152.476 43.7757 149.084 42.483 146.662 39.8977C144.239 37.474 142.947 33.7576 142.947 29.7181C142.947 20.3464 149.246 15.0142 157.644 15.0142C161.036 15.0142 163.62 15.6605 164.75 16.4684L163.458 21.639C162.005 20.9927 160.228 20.3464 157.483 20.3464C152.638 20.3464 148.923 23.4164 148.923 29.3949C148.923 35.2118 152.315 38.6051 156.998 38.6051C158.29 38.6051 159.421 38.4435 159.905 38.1203V32.1418H155.868V27.1328H165.558L165.719 42.1599Z" fill="white"/>
<path d="M178.801 15.499V26.325H188.492V15.499H194.306V43.7758H188.492V31.9803H178.801V43.7758H172.987V15.499H178.801Z" fill="white"/>
<path d="M206.904 20.8312H199.959V15.499H219.824V20.8312H212.718V43.7758H206.904V20.8312Z" fill="white"/>
<path d="M61.5488 23.2549H56.0576V28.5871H61.5488V23.2549Z" fill="white"/>
<path d="M61.5488 30.5261H56.0576V35.8583H61.5488V30.5261Z" fill="white"/>
<path d="M135.679 12.5905L131.642 11.4594C131.642 2.73399 138.909 0.310263 139.232 0.148682L140.686 3.86506L139.878 2.08766L140.686 3.86506C140.524 3.86506 137.94 4.83454 136.648 7.74301C138.425 7.25827 141.009 7.09669 144.401 7.41985L143.916 11.2978C137.617 10.6515 135.679 12.4289 135.679 12.5905Z" fill="white"/>
</svg>
