<svg width="220" height="45" viewBox="0 0 220 45" fill="none" xmlns="http://www.w3.org/2000/svg">
<path d="M20.3649 43.2578C19.2344 43.9159 16.8118 44.574 13.7432 44.574C4.86041 44.574 0.176758 38.322 0.176758 30.2601C0.176758 20.3884 6.47546 14.959 14.2277 14.959C17.2963 14.959 19.5574 15.6171 20.5264 16.2752L19.3959 21.3756C18.2653 20.882 16.4888 20.3884 14.5507 20.3884C9.86707 20.3884 6.31395 23.5144 6.31395 29.931C6.31395 35.6895 9.38255 39.3091 14.5507 39.3091C16.3273 39.3091 18.2653 38.8156 19.3959 38.322L20.3649 43.2578Z" fill="#0041C4"/>
<path d="M56.2195 39.1446C58.8036 39.3091 60.5801 39.1446 62.5182 39.1446C68.3324 39.1446 71.724 35.525 71.724 29.7665C71.724 23.3499 67.6864 20.2239 62.6797 20.2239C60.4186 20.2239 58.4806 20.0594 56.2195 20.3884L55.8965 15.288C59.6111 14.959 59.6111 14.959 62.8412 14.959C71.401 14.959 78.3457 20.3884 78.3457 30.2601C78.3457 38.4865 73.339 44.574 63.4872 44.574C59.9341 44.574 58.8036 44.574 56.2195 44.245V39.1446Z" fill="#0041C4"/>
<path d="M49.2741 29.2729C49.2741 38.651 44.106 44.4095 36.5152 44.4095C28.763 44.4095 24.4023 37.9929 24.4023 29.7665C24.4023 21.211 29.2475 14.6299 36.9997 14.6299C45.075 14.7944 49.2741 21.3755 49.2741 29.2729ZM30.701 29.7665C30.701 35.3604 33.1236 39.3091 36.9997 39.3091C40.8759 39.3091 43.1369 35.1959 43.1369 29.4374C43.1369 24.337 40.8759 19.8948 36.8382 19.8948C32.9621 19.8948 30.701 24.1725 30.701 29.7665Z" fill="#0041C4"/>
<path d="M100.472 32.3988H90.9431V39.1445H101.602V44.5739H85.1289V15.7815H101.118V21.2109H91.1046V27.1339H100.633V32.3988H100.472Z" fill="#0041C4"/>
<path d="M108.224 15.7815H114.038V39.1445H124.213V44.5739H108.062V15.7815H108.224Z" fill="#0041C4"/>
<path d="M136.326 15.7815V44.5739H130.512V15.7815H136.326Z" fill="#0041C4"/>
<path d="M165.719 42.9286C163.943 43.5867 160.551 44.5738 157.16 44.5738C152.476 44.5738 149.084 43.2576 146.662 40.6252C144.239 38.1572 142.947 34.3731 142.947 30.2599C142.947 20.7173 149.246 15.2878 157.644 15.2878C161.036 15.2878 163.62 15.946 164.75 16.7686L163.458 22.0335C162.005 21.3754 160.228 20.7173 157.483 20.7173C152.638 20.7173 148.923 23.8433 148.923 29.9308C148.923 35.8538 152.315 39.3089 156.998 39.3089C158.29 39.3089 159.421 39.1444 159.905 38.8154V32.7278H155.868V27.6274H165.558L165.719 42.9286Z" fill="#0041C4"/>
<path d="M178.801 15.7815V26.8049H188.492V15.7815H194.306V44.5739H188.492V32.5634H178.801V44.5739H172.987V15.7815H178.801Z" fill="#0041C4"/>
<path d="M206.903 21.2109H199.958V15.7815H219.823V21.2109H212.717V44.5739H206.903V21.2109Z" fill="#0041C4"/>
<path d="M61.5488 23.679H56.0576V29.1084H61.5488V23.679Z" fill="#0041C4"/>
<path d="M61.5488 31.0828H56.0576V36.5122H61.5488V31.0828Z" fill="#0041C4"/>
<path d="M135.679 12.82L131.642 11.6683C131.642 2.78382 138.909 0.315895 139.232 0.151367L140.686 3.93552L139.878 2.1257L140.686 3.93552C140.524 3.93552 137.94 4.92268 136.648 7.88419C138.425 7.3906 141.009 7.22608 144.401 7.55514L143.916 11.5038C137.617 10.8457 135.679 12.6555 135.679 12.82Z" fill="#0041C4"/>
</svg>
