<svg width="265" height="245" viewBox="0 0 265 245" fill="none" xmlns="http://www.w3.org/2000/svg">
<ellipse cx="3.58108" cy="3.72154" rx="3.58108" ry="3.58824" fill="#F84A92"/>
<ellipse cx="3.58108" cy="25.251" rx="3.58108" ry="3.58823" fill="#F84A92"/>
<ellipse cx="3.58108" cy="46.7804" rx="3.58108" ry="3.58823" fill="#F84A92"/>
<ellipse cx="3.58108" cy="68.3098" rx="3.58108" ry="3.58823" fill="#F84A92"/>
<ellipse cx="3.58108" cy="89.8392" rx="3.58108" ry="3.58823" fill="#F84A92"/>
<ellipse cx="3.58108" cy="111.369" rx="3.58108" ry="3.58824" fill="#F84A92"/>
<ellipse cx="3.58108" cy="132.898" rx="3.58108" ry="3.58823" fill="#F84A92"/>
<ellipse cx="3.58108" cy="154.427" rx="3.58108" ry="3.58823" fill="#F84A92"/>
<ellipse cx="3.58108" cy="175.957" rx="3.58108" ry="3.58823" fill="#F84A92"/>
<ellipse cx="3.58108" cy="197.486" rx="3.58108" ry="3.58823" fill="#F84A92"/>
<ellipse cx="3.58108" cy="219.016" rx="3.58108" ry="3.58824" fill="#F84A92"/>
<ellipse cx="3.58108" cy="240.545" rx="3.58108" ry="3.58823" fill="#F84A92"/>
<ellipse cx="25.0674" cy="3.72154" rx="3.58108" ry="3.58824" fill="#F84A92"/>
<ellipse cx="25.0674" cy="25.251" rx="3.58108" ry="3.58823" fill="#F84A92"/>
<ellipse cx="25.0674" cy="46.7804" rx="3.58108" ry="3.58823" fill="#F84A92"/>
<ellipse cx="25.0674" cy="68.3098" rx="3.58108" ry="3.58823" fill="#F84A92"/>
<ellipse cx="25.0674" cy="89.8392" rx="3.58108" ry="3.58823" fill="#F84A92"/>
<ellipse cx="25.0674" cy="111.369" rx="3.58108" ry="3.58824" fill="#F84A92"/>
<ellipse cx="25.0674" cy="132.898" rx="3.58108" ry="3.58823" fill="#F84A92"/>
<ellipse cx="25.0674" cy="154.427" rx="3.58108" ry="3.58823" fill="#F84A92"/>
<ellipse cx="25.0674" cy="175.957" rx="3.58108" ry="3.58823" fill="#F84A92"/>
<ellipse cx="25.0674" cy="197.486" rx="3.58108" ry="3.58823" fill="#F84A92"/>
<ellipse cx="25.0674" cy="219.016" rx="3.58108" ry="3.58824" fill="#F84A92"/>
<ellipse cx="25.0674" cy="240.545" rx="3.58108" ry="3.58823" fill="#F84A92"/>
<ellipse cx="46.5542" cy="3.72154" rx="3.58108" ry="3.58824" fill="#F84A92"/>
<ellipse cx="46.5542" cy="25.251" rx="3.58108" ry="3.58823" fill="#F84A92"/>
<ellipse cx="46.5542" cy="46.7804" rx="3.58108" ry="3.58823" fill="#F84A92"/>
<ellipse cx="46.5542" cy="68.3098" rx="3.58108" ry="3.58823" fill="#F84A92"/>
<ellipse cx="46.5542" cy="89.8392" rx="3.58108" ry="3.58823" fill="#F84A92"/>
<ellipse cx="46.5542" cy="111.369" rx="3.58108" ry="3.58824" fill="#F84A92"/>
<ellipse cx="46.5542" cy="132.898" rx="3.58108" ry="3.58823" fill="#F84A92"/>
<ellipse cx="46.5542" cy="154.427" rx="3.58108" ry="3.58823" fill="#F84A92"/>
<ellipse cx="46.5542" cy="175.957" rx="3.58108" ry="3.58823" fill="#F84A92"/>
<ellipse cx="46.5542" cy="197.486" rx="3.58108" ry="3.58823" fill="#F84A92"/>
<ellipse cx="46.5542" cy="219.016" rx="3.58108" ry="3.58824" fill="#F84A92"/>
<ellipse cx="46.5542" cy="240.545" rx="3.58108" ry="3.58823" fill="#F84A92"/>
<ellipse cx="68.0406" cy="3.72154" rx="3.58109" ry="3.58824" fill="#F84A92"/>
<ellipse cx="68.0406" cy="25.251" rx="3.58109" ry="3.58823" fill="#F84A92"/>
<ellipse cx="68.0406" cy="46.7804" rx="3.58109" ry="3.58823" fill="#F84A92"/>
<ellipse cx="68.0406" cy="68.3098" rx="3.58109" ry="3.58823" fill="#F84A92"/>
<ellipse cx="68.0406" cy="89.8392" rx="3.58109" ry="3.58823" fill="#F84A92"/>
<ellipse cx="68.0406" cy="111.369" rx="3.58109" ry="3.58824" fill="#F84A92"/>
<ellipse cx="68.0406" cy="132.898" rx="3.58109" ry="3.58823" fill="#F84A92"/>
<ellipse cx="68.0406" cy="154.427" rx="3.58109" ry="3.58823" fill="#F84A92"/>
<ellipse cx="68.0406" cy="175.957" rx="3.58109" ry="3.58823" fill="#F84A92"/>
<ellipse cx="68.0406" cy="197.486" rx="3.58109" ry="3.58823" fill="#F84A92"/>
<ellipse cx="68.0406" cy="219.016" rx="3.58109" ry="3.58824" fill="#F84A92"/>
<ellipse cx="68.0406" cy="240.545" rx="3.58109" ry="3.58823" fill="#F84A92"/>
<ellipse cx="89.5269" cy="3.72154" rx="3.58107" ry="3.58824" fill="#F84A92"/>
<ellipse cx="89.5269" cy="25.251" rx="3.58107" ry="3.58823" fill="#F84A92"/>
<ellipse cx="89.5269" cy="46.7804" rx="3.58107" ry="3.58823" fill="#F84A92"/>
<ellipse cx="89.5269" cy="68.3098" rx="3.58107" ry="3.58823" fill="#F84A92"/>
<ellipse cx="89.5269" cy="89.8392" rx="3.58107" ry="3.58823" fill="#F84A92"/>
<ellipse cx="89.5269" cy="111.369" rx="3.58107" ry="3.58824" fill="#F84A92"/>
<ellipse cx="89.5269" cy="132.898" rx="3.58107" ry="3.58823" fill="#F84A92"/>
<ellipse cx="89.5269" cy="154.427" rx="3.58107" ry="3.58823" fill="#F84A92"/>
<ellipse cx="89.5269" cy="175.957" rx="3.58107" ry="3.58823" fill="#F84A92"/>
<ellipse cx="89.5269" cy="197.486" rx="3.58107" ry="3.58823" fill="#F84A92"/>
<ellipse cx="89.5269" cy="219.016" rx="3.58107" ry="3.58824" fill="#F84A92"/>
<ellipse cx="89.5269" cy="240.545" rx="3.58107" ry="3.58823" fill="#F84A92"/>
<ellipse cx="111.014" cy="3.72154" rx="3.58108" ry="3.58824" fill="#F84A92"/>
<ellipse cx="111.014" cy="25.251" rx="3.58108" ry="3.58823" fill="#F84A92"/>
<ellipse cx="111.014" cy="46.7804" rx="3.58108" ry="3.58823" fill="#F84A92"/>
<ellipse cx="111.014" cy="68.3098" rx="3.58108" ry="3.58823" fill="#F84A92"/>
<ellipse cx="111.014" cy="89.8392" rx="3.58108" ry="3.58823" fill="#F84A92"/>
<ellipse cx="111.014" cy="111.369" rx="3.58108" ry="3.58824" fill="#F84A92"/>
<ellipse cx="111.014" cy="132.898" rx="3.58108" ry="3.58823" fill="#F84A92"/>
<ellipse cx="111.014" cy="154.427" rx="3.58108" ry="3.58823" fill="#F84A92"/>
<ellipse cx="111.014" cy="175.957" rx="3.58108" ry="3.58823" fill="#F84A92"/>
<ellipse cx="111.014" cy="197.486" rx="3.58108" ry="3.58823" fill="#F84A92"/>
<ellipse cx="111.014" cy="219.016" rx="3.58108" ry="3.58824" fill="#F84A92"/>
<ellipse cx="111.014" cy="240.545" rx="3.58108" ry="3.58823" fill="#F84A92"/>
<ellipse cx="132.5" cy="3.72154" rx="3.58109" ry="3.58824" fill="#F84A92"/>
<ellipse cx="132.5" cy="25.251" rx="3.58109" ry="3.58823" fill="#F84A92"/>
<ellipse cx="132.5" cy="46.7804" rx="3.58109" ry="3.58823" fill="#F84A92"/>
<ellipse cx="132.5" cy="68.3098" rx="3.58109" ry="3.58823" fill="#F84A92"/>
<ellipse cx="132.5" cy="89.8392" rx="3.58109" ry="3.58823" fill="#F84A92"/>
<ellipse cx="132.5" cy="111.369" rx="3.58109" ry="3.58824" fill="#F84A92"/>
<ellipse cx="132.5" cy="132.898" rx="3.58109" ry="3.58823" fill="#F84A92"/>
<ellipse cx="132.5" cy="154.427" rx="3.58109" ry="3.58823" fill="#F84A92"/>
<ellipse cx="132.5" cy="175.957" rx="3.58109" ry="3.58823" fill="#F84A92"/>
<ellipse cx="132.5" cy="197.486" rx="3.58109" ry="3.58823" fill="#F84A92"/>
<ellipse cx="132.5" cy="219.016" rx="3.58109" ry="3.58824" fill="#F84A92"/>
<ellipse cx="132.5" cy="240.545" rx="3.58109" ry="3.58823" fill="#F84A92"/>
<ellipse cx="153.986" cy="3.72154" rx="3.58108" ry="3.58824" fill="#F84A92"/>
<ellipse cx="175.473" cy="3.72154" rx="3.58108" ry="3.58824" fill="#F84A92"/>
<ellipse cx="196.96" cy="3.72154" rx="3.58109" ry="3.58824" fill="#F84A92"/>
<ellipse cx="218.446" cy="3.72154" rx="3.58109" ry="3.58824" fill="#F84A92"/>
<ellipse cx="239.933" cy="3.72154" rx="3.58108" ry="3.58824" fill="#F84A92"/>
<ellipse cx="261.419" cy="3.72154" rx="3.58109" ry="3.58824" fill="#F84A92"/>
<ellipse cx="153.986" cy="25.251" rx="3.58108" ry="3.58823" fill="#F84A92"/>
<ellipse cx="175.473" cy="25.251" rx="3.58108" ry="3.58823" fill="#F84A92"/>
<ellipse cx="196.96" cy="25.251" rx="3.58109" ry="3.58823" fill="#F84A92"/>
<ellipse cx="218.446" cy="25.251" rx="3.58109" ry="3.58823" fill="#F84A92"/>
<ellipse cx="239.933" cy="25.251" rx="3.58108" ry="3.58823" fill="#F84A92"/>
<ellipse cx="261.419" cy="25.251" rx="3.58109" ry="3.58823" fill="#F84A92"/>
<ellipse cx="153.986" cy="46.7804" rx="3.58108" ry="3.58823" fill="#F84A92"/>
<ellipse cx="175.473" cy="46.7804" rx="3.58108" ry="3.58823" fill="#F84A92"/>
<ellipse cx="196.96" cy="46.7804" rx="3.58109" ry="3.58823" fill="#F84A92"/>
<ellipse cx="218.446" cy="46.7804" rx="3.58109" ry="3.58823" fill="#F84A92"/>
<ellipse cx="239.933" cy="46.7804" rx="3.58108" ry="3.58823" fill="#F84A92"/>
<ellipse cx="261.419" cy="46.7804" rx="3.58109" ry="3.58823" fill="#F84A92"/>
<ellipse cx="153.986" cy="68.3098" rx="3.58108" ry="3.58823" fill="#F84A92"/>
<ellipse cx="175.473" cy="68.3098" rx="3.58108" ry="3.58823" fill="#F84A92"/>
<ellipse cx="196.96" cy="68.3098" rx="3.58109" ry="3.58823" fill="#F84A92"/>
<ellipse cx="218.446" cy="68.3098" rx="3.58109" ry="3.58823" fill="#F84A92"/>
<ellipse cx="239.933" cy="68.3098" rx="3.58108" ry="3.58823" fill="#F84A92"/>
<ellipse cx="261.419" cy="68.3098" rx="3.58109" ry="3.58823" fill="#F84A92"/>
<ellipse cx="153.986" cy="89.8392" rx="3.58108" ry="3.58823" fill="#F84A92"/>
<ellipse cx="175.473" cy="89.8392" rx="3.58108" ry="3.58823" fill="#F84A92"/>
<ellipse cx="196.96" cy="89.8392" rx="3.58109" ry="3.58823" fill="#F84A92"/>
<ellipse cx="218.446" cy="89.8392" rx="3.58109" ry="3.58823" fill="#F84A92"/>
<ellipse cx="239.933" cy="89.8392" rx="3.58108" ry="3.58823" fill="#F84A92"/>
<ellipse cx="261.419" cy="89.8392" rx="3.58109" ry="3.58823" fill="#F84A92"/>
<ellipse cx="153.986" cy="111.369" rx="3.58108" ry="3.58824" fill="#F84A92"/>
<ellipse cx="175.473" cy="111.369" rx="3.58108" ry="3.58824" fill="#F84A92"/>
<ellipse cx="196.96" cy="111.369" rx="3.58109" ry="3.58824" fill="#F84A92"/>
<ellipse cx="218.446" cy="111.369" rx="3.58109" ry="3.58824" fill="#F84A92"/>
<ellipse cx="239.933" cy="111.369" rx="3.58108" ry="3.58824" fill="#F84A92"/>
<ellipse cx="261.419" cy="111.369" rx="3.58109" ry="3.58824" fill="#F84A92"/>
<ellipse cx="153.986" cy="132.898" rx="3.58108" ry="3.58823" fill="#F84A92"/>
<ellipse cx="175.473" cy="132.898" rx="3.58108" ry="3.58823" fill="#F84A92"/>
<ellipse cx="196.96" cy="132.898" rx="3.58109" ry="3.58823" fill="#F84A92"/>
<ellipse cx="218.446" cy="132.898" rx="3.58109" ry="3.58823" fill="#F84A92"/>
<ellipse cx="239.933" cy="132.898" rx="3.58108" ry="3.58823" fill="#F84A92"/>
<ellipse cx="261.419" cy="132.898" rx="3.58109" ry="3.58823" fill="#F84A92"/>
<ellipse cx="153.986" cy="154.427" rx="3.58108" ry="3.58823" fill="#F84A92"/>
<ellipse cx="175.473" cy="154.427" rx="3.58108" ry="3.58823" fill="#F84A92"/>
<ellipse cx="196.96" cy="154.427" rx="3.58109" ry="3.58823" fill="#F84A92"/>
<ellipse cx="218.446" cy="154.427" rx="3.58109" ry="3.58823" fill="#F84A92"/>
<ellipse cx="239.933" cy="154.427" rx="3.58108" ry="3.58823" fill="#F84A92"/>
<ellipse cx="261.419" cy="154.427" rx="3.58109" ry="3.58823" fill="#F84A92"/>
<ellipse cx="153.986" cy="175.957" rx="3.58108" ry="3.58823" fill="#F84A92"/>
<ellipse cx="175.473" cy="175.957" rx="3.58108" ry="3.58823" fill="#F84A92"/>
<ellipse cx="196.96" cy="175.957" rx="3.58109" ry="3.58823" fill="#F84A92"/>
<ellipse cx="218.446" cy="175.957" rx="3.58109" ry="3.58823" fill="#F84A92"/>
<ellipse cx="239.933" cy="175.957" rx="3.58108" ry="3.58823" fill="#F84A92"/>
<ellipse cx="261.419" cy="175.957" rx="3.58109" ry="3.58823" fill="#F84A92"/>
<ellipse cx="153.986" cy="197.486" rx="3.58108" ry="3.58823" fill="#F84A92"/>
<ellipse cx="175.473" cy="197.486" rx="3.58108" ry="3.58823" fill="#F84A92"/>
<ellipse cx="196.96" cy="197.486" rx="3.58109" ry="3.58823" fill="#F84A92"/>
<ellipse cx="218.446" cy="197.486" rx="3.58109" ry="3.58823" fill="#F84A92"/>
<ellipse cx="239.933" cy="197.486" rx="3.58108" ry="3.58823" fill="#F84A92"/>
<ellipse cx="261.419" cy="197.486" rx="3.58109" ry="3.58823" fill="#F84A92"/>
<ellipse cx="153.986" cy="219.016" rx="3.58108" ry="3.58824" fill="#F84A92"/>
<ellipse cx="175.473" cy="219.016" rx="3.58108" ry="3.58824" fill="#F84A92"/>
<ellipse cx="196.96" cy="219.016" rx="3.58109" ry="3.58824" fill="#F84A92"/>
<ellipse cx="218.446" cy="219.016" rx="3.58109" ry="3.58824" fill="#F84A92"/>
<ellipse cx="239.933" cy="219.016" rx="3.58108" ry="3.58824" fill="#F84A92"/>
<ellipse cx="261.419" cy="219.016" rx="3.58109" ry="3.58824" fill="#F84A92"/>
<ellipse cx="153.986" cy="240.545" rx="3.58108" ry="3.58823" fill="#F84A92"/>
<ellipse cx="175.473" cy="240.545" rx="3.58108" ry="3.58823" fill="#F84A92"/>
<ellipse cx="196.96" cy="240.545" rx="3.58109" ry="3.58823" fill="#F84A92"/>
<ellipse cx="218.446" cy="240.545" rx="3.58109" ry="3.58823" fill="#F84A92"/>
<ellipse cx="239.933" cy="240.545" rx="3.58108" ry="3.58823" fill="#F84A92"/>
<ellipse cx="261.419" cy="240.545" rx="3.58109" ry="3.58823" fill="#F84A92"/>
</svg>
