<svg width="285" height="311" viewBox="0 0 285 311" fill="none" xmlns="http://www.w3.org/2000/svg">
<g style="mix-blend-mode:darken">
<path d="M33.8767 274.128H217.818L209.033 245.684C210.336 246.819 284.395 310.3 284.395 310.3V32.6275C283.518 15.3673 268.657 0.700012 250.236 0.700012L33.9412 0.738712C15.5329 0.738712 0.594727 15.4318 0.594727 32.692L0.594727 242.188C0.594727 260.39 15.5071 274.128 33.8767 274.128V274.128ZM169.946 74.0107L169.52 74.1655L169.675 74.0107H169.946ZM71.506 90.3808C95.1517 73.1722 117.069 73.9978 117.069 73.9978L118.836 75.7393C89.9014 82.6408 76.7821 95.5666 76.7821 95.5666C78.1237 95.2828 136.548 61.5751 207.343 96.418C207.343 96.418 194.198 84.3307 167.043 76.5907L169.443 74.23C173.197 74.2429 193.063 74.9395 214.322 90.484C214.322 90.484 238.11 131.119 238.11 181.042C237.323 180.087 223.352 202.533 187.4 203.307C187.4 203.307 181.311 196.419 176.976 190.407C198.003 184.37 205.872 172.296 205.872 172.296C164.941 198.07 129.066 194.045 86.1475 176.63C85.7476 176.63 85.567 176.45 85.3606 176.243V176.166C85.1542 175.972 84.9736 175.779 84.5737 175.779H83.7997C81.1681 174.05 79.4137 173.199 79.4137 173.199C79.4137 173.199 87.2698 185.273 107.458 191.31C102.156 197.36 96.9061 204.236 96.9061 204.236C60.9667 203.385 47.8603 180.939 47.8603 180.939C47.8603 130.938 71.506 90.3808 71.506 90.3808V90.3808Z" fill="url(#paint0_linear_792_931)"/>
</g>
<path d="M172.263 165.446C181.434 165.446 188.903 157.706 188.903 148.16C188.903 138.678 181.473 130.938 172.263 130.938V130.977C163.129 130.977 155.647 138.691 155.622 148.237C155.622 157.706 163.091 165.446 172.263 165.446Z" fill="url(#paint1_linear_792_931)"/>
<path d="M112.692 165.446C121.864 165.446 129.333 157.706 129.333 148.16C129.333 138.678 121.916 130.938 112.744 130.938L112.692 130.977C103.52 130.977 96.0513 138.691 96.0513 148.237C96.0513 157.706 103.52 165.446 112.692 165.446V165.446Z" fill="url(#paint2_linear_792_931)"/>
<defs>
<linearGradient id="paint0_linear_792_931" x1="138.592" y1="9.17167" x2="-55.2794" y2="160.567" gradientUnits="userSpaceOnUse">
<stop stop-color="#7D17FF"/>
<stop offset="1" stop-color="#0085FF"/>
</linearGradient>
<linearGradient id="paint1_linear_792_931" x1="171.805" y1="131.882" x2="149.955" y2="149.835" gradientUnits="userSpaceOnUse">
<stop stop-color="#7D17FF"/>
<stop offset="1" stop-color="#0085FF"/>
</linearGradient>
<linearGradient id="paint2_linear_792_931" x1="112.235" y1="131.882" x2="90.3848" y2="149.835" gradientUnits="userSpaceOnUse">
<stop stop-color="#7D17FF"/>
<stop offset="1" stop-color="#0085FF"/>
</linearGradient>
</defs>
</svg>
