<svg width="125" height="83" viewBox="0 0 125 83" fill="none" xmlns="http://www.w3.org/2000/svg">
<path d="M11 60.0919V23.1179C11 10.4451 21.5349 0.000488281 34.1628 0.000488281C46.7907 0.000488281 57.3256 10.5148 57.3256 23.1179V24.3713H47.6279V23.1179C47.6279 15.5978 41.6279 9.67918 34.1628 9.67918C26.6977 9.67918 20.6977 15.6674 20.6977 23.1179V60.0919C20.6977 67.6121 26.6977 73.6003 34.1628 73.6003C41.6279 73.6003 47.6279 67.6121 47.6279 60.0919V46.3746H33.9535V36.7656H57.0465V59.883C57.0465 72.6951 46.5116 83.0005 33.8837 83.0005C21.2558 83.0005 11 72.6951 11 60.0919Z" fill="black"/>
<path d="M66.5352 1.25378H90.1166C102.535 1.25378 113.07 11.4895 113.07 24.1623C113.07 32.1003 108.326 38.2974 103.024 41.9182C108.396 45.539 113.07 51.5273 113.07 59.6741C113.07 72.0684 102.814 82.5826 90.1166 82.5826H66.5352V1.25378ZM90.0468 36.7655C97.3026 36.7655 103.093 30.7773 103.093 23.9535C103.093 16.7118 97.0933 10.9325 90.0468 10.9325H76.0933V37.0441L90.0468 36.7655ZM90.0468 72.2773C97.3026 72.2773 103.093 66.289 103.093 59.2563C103.093 52.0147 97.0933 46.4442 90.0468 46.4442H76.0933V72.3469H90.0468V72.2773Z" fill="black"/>
</svg>
