<svg width="51" height="71" viewBox="0 0 51 71" fill="none" xmlns="http://www.w3.org/2000/svg">
<path d="M16.8888 52.1192C7.7309 52.1192 0.277344 44.6657 0.277344 35.503C0.277344 26.3404 7.7309 18.8915 16.8888 18.8915C20.8815 18.8915 24.7412 20.33 27.7606 22.9411C28.1024 23.2355 28.3065 23.6438 28.335 24.09C28.3682 24.5363 28.2211 24.9731 27.9267 25.3101C27.6086 25.6805 27.1434 25.8893 26.6544 25.8893C26.2509 25.8893 25.8568 25.7422 25.553 25.4763C23.1508 23.3922 20.0696 22.248 16.8841 22.248C9.58717 22.2575 3.64331 28.2014 3.64331 35.503C3.64331 42.8046 9.58717 48.7533 16.8936 48.7533C18.1849 48.7533 19.4572 48.5681 20.6821 48.2025C20.8387 48.1551 21.0001 48.1313 21.1616 48.1313C21.8974 48.1313 22.5621 48.6251 22.7757 49.3324C23.0416 50.2202 22.5336 51.1602 21.6458 51.4261C20.1029 51.8866 18.5077 52.1192 16.8888 52.1192Z" fill="black"/>
<path d="M48.2269 43.4551C48.2269 45.8763 47.3344 48.0649 45.7107 49.6269C43.9067 51.3644 41.2576 52.2854 38.0435 52.2854H24.836V39.5005H11.2439C10.3562 39.5005 9.6203 38.8453 9.53959 37.9813C9.49212 37.5113 9.64878 37.0365 9.97161 36.6852C10.2897 36.3339 10.7407 36.1345 11.2155 36.1345H26.5261C26.9914 36.1345 27.4091 36.3244 27.7177 36.6282C28.0216 36.9321 28.2115 37.3546 28.2115 37.8198V48.9242H38.053C43.2753 48.9242 44.8419 45.2877 44.8419 42.5721C44.8419 39.6809 42.1311 36.2199 38.053 36.2199H35.3659C35.347 36.2199 35.328 36.2199 35.309 36.2199C35.2805 36.2199 35.252 36.2152 35.2283 36.2152C35.195 36.2104 35.1618 36.2104 35.1286 36.2057C34.8959 36.1725 34.6776 36.087 34.4877 35.9731C34.4449 35.9446 34.4022 35.9209 34.3642 35.8924L34.3595 35.8876C34.3215 35.8591 34.2835 35.8259 34.2455 35.7974C34.1791 35.7404 34.1221 35.6787 34.0651 35.6123C34.0414 35.5838 34.0177 35.5505 33.9939 35.5173C33.9797 35.4983 33.9654 35.4793 33.9512 35.4603C33.918 35.4129 33.8895 35.3606 33.8657 35.3084C33.8562 35.2894 33.842 35.2657 33.8278 35.2325C33.7945 35.166 33.7376 35.0236 33.7043 34.8289C33.6901 34.7387 33.6806 34.6438 33.6806 34.5488C33.6806 34.0503 33.899 33.6041 34.2408 33.2955C34.2693 33.2718 34.2978 33.2433 34.331 33.2195C34.4687 33.1151 34.6206 33.0296 34.782 32.9679C34.8105 32.9584 34.8342 32.9489 34.8627 32.9394C34.8864 32.9299 34.9149 32.9252 34.9387 32.9157C34.9672 32.9062 35.0004 32.9014 35.0336 32.892C35.0763 32.8825 35.1143 32.8777 35.1618 32.873C35.2283 32.8635 35.2947 32.8635 35.3612 32.8635H37.9723C39.6055 32.8635 40.9063 32.327 41.8463 31.2731C42.6771 30.3378 43.1518 29.0227 43.1518 27.665C43.1518 25.3339 41.7703 22.6041 37.8869 22.6041H34.6918C33.766 22.6041 33.0112 21.8493 33.0112 20.9235C33.0112 19.9978 33.766 19.2429 34.6918 19.2429H37.8869C43.5554 19.2429 46.5178 23.4824 46.5178 27.6697C46.5178 29.8773 45.7487 31.9614 44.3482 33.5281C44.0491 33.8652 43.7215 34.1738 43.375 34.4491C44.1441 34.9524 44.8562 35.5695 45.4923 36.2959C47.2299 38.2709 48.2269 40.882 48.2269 43.4551Z" fill="black"/>
<mask id="path-3-inside-1_1672_1586" fill="white">
<path d="M35.1189 36.2057C34.8863 36.1725 34.6679 36.0918 34.478 35.9731C34.6679 36.087 34.8863 36.1677 35.1189 36.2057Z"/>
</mask>
<path d="M35.1189 36.2057C34.8863 36.1725 34.6679 36.0918 34.478 35.9731C34.6679 36.087 34.8863 36.1677 35.1189 36.2057Z" fill="black"/>
<path d="M35.1189 36.2057L34.5533 40.1655L35.7635 32.258L35.1189 36.2057ZM34.478 35.9731L36.536 32.5431L32.358 39.3651L34.478 35.9731ZM35.6846 32.2459C36.0008 32.2911 36.3123 32.4025 36.598 32.5811L32.358 39.3651C33.0235 39.781 33.7718 40.0539 34.5533 40.1655L35.6846 32.2459ZM32.42 39.4031C33.0509 39.7816 33.75 40.0352 34.4744 40.1534L35.7635 32.258C36.0226 32.3003 36.2849 32.3925 36.536 32.5431L32.42 39.4031Z" fill="#F1B664" fill-opacity="0.5" mask="url(#path-3-inside-1_1672_1586)"/>
</svg>
