<svg width="122" height="122" viewBox="0 0 122 122" fill="none" xmlns="http://www.w3.org/2000/svg">
<path d="M61 122C94.6894 122 122 94.6894 122 61C122 27.3106 94.6894 0 61 0C27.3106 0 0 27.3106 0 61C0 94.6894 27.3106 122 61 122Z" fill="#2C3ACF"/>
<path d="M21.3727 80.3686C21.1562 80.3686 20.935 80.3235 20.7262 80.2269C19.9442 79.8686 19.5999 78.9448 19.9582 78.1628L39.7941 34.8146C40.1524 34.0325 41.0761 33.6883 41.8582 34.0466C42.6402 34.4049 42.9845 35.3287 42.6262 36.1107L22.7903 79.4589C22.5286 80.0306 21.9647 80.3686 21.3727 80.3686Z" fill="white"/>
<path d="M61.0492 80.3686C60.4588 80.3686 59.8933 80.0306 59.6315 79.4589L39.7941 36.1107C39.4358 35.3287 39.7801 34.4033 40.5621 34.0466C41.3442 33.6883 42.2695 34.0325 42.6263 34.8146L62.4637 78.1628C62.822 78.9448 62.4777 79.8701 61.6957 80.2269C61.4854 80.3235 61.2657 80.3686 61.0492 80.3686Z" fill="white"/>
<path d="M61.0456 80.3686C60.829 80.3686 60.6078 80.3235 60.3991 80.2269C59.617 79.8686 59.2727 78.9448 59.631 78.1628L79.4685 34.8146C79.8268 34.0325 80.7506 33.6883 81.5326 34.0466C82.3147 34.4049 82.6589 35.3287 82.3006 36.1107L62.4632 79.4589C62.2015 80.0322 61.6375 80.3686 61.0456 80.3686Z" fill="white"/>
<path d="M100.723 80.3686C100.133 80.3686 99.5671 80.0306 99.3054 79.4589L79.468 36.1107C79.1097 35.3287 79.4539 34.4033 80.236 34.0466C81.018 33.6883 81.9433 34.0325 82.3001 34.8146L102.137 78.1628C102.496 78.9448 102.152 79.8701 101.369 80.2269C101.159 80.3235 100.94 80.3686 100.723 80.3686Z" fill="white"/>
<path d="M21.2757 86.5377C24.5632 86.5377 27.2282 83.9536 27.2282 80.7659C27.2282 77.5783 24.5632 74.9941 21.2757 74.9941C17.9883 74.9941 15.3232 77.5783 15.3232 80.7659C15.3232 83.9536 17.9883 86.5377 21.2757 86.5377Z" fill="white"/>
<path d="M61.0003 86.5377C64.2878 86.5377 66.9528 83.9536 66.9528 80.7659C66.9528 77.5783 64.2878 74.9941 61.0003 74.9941C57.7129 74.9941 55.0479 77.5783 55.0479 80.7659C55.0479 83.9536 57.7129 86.5377 61.0003 86.5377Z" fill="white"/>
<path d="M100.725 86.5377C104.012 86.5377 106.677 83.9536 106.677 80.7659C106.677 77.5783 104.012 74.9941 100.725 74.9941C97.4375 74.9941 94.7725 77.5783 94.7725 80.7659C94.7725 83.9536 97.4375 86.5377 100.725 86.5377Z" fill="white"/>
</svg>
